<mxfile host="app.diagrams.net" modified="2023-12-14T08:31:40.529Z" agent="Mozilla/5.0 (Macintosh; Intel Mac OS X 10.15; rv:120.0) Gecko/20100101 Firefox/120.0" etag="z6BL8427rcPEkCaKD56a" version="22.1.8" type="github">
  <diagram name="Página-1" id="gGJQhlzUZRJhvLzHdn19">
    <mxGraphModel dx="956" dy="611" grid="1" gridSize="10" guides="1" tooltips="1" connect="1" arrows="1" fold="1" page="1" pageScale="1" pageWidth="827" pageHeight="1169" math="0" shadow="0">
      <root>
        <mxCell id="0" />
        <mxCell id="1" parent="0" />
        <mxCell id="Xmn437RvW-CCdH2j-r-6-56" value="" style="rounded=0;whiteSpace=wrap;html=1;fillColor=none;" vertex="1" parent="1">
          <mxGeometry x="190" y="520" width="450" height="530" as="geometry" />
        </mxCell>
        <mxCell id="Xmn437RvW-CCdH2j-r-6-1" value="Usuario del sistema" style="shape=umlActor;verticalLabelPosition=bottom;verticalAlign=top;html=1;outlineConnect=0;" vertex="1" parent="1">
          <mxGeometry x="90" y="170" width="30" height="60" as="geometry" />
        </mxCell>
        <mxCell id="Xmn437RvW-CCdH2j-r-6-2" value="" style="whiteSpace=wrap;html=1;aspect=fixed;fillColor=none;" vertex="1" parent="1">
          <mxGeometry x="190" y="40" width="450" height="450" as="geometry" />
        </mxCell>
        <mxCell id="Xmn437RvW-CCdH2j-r-6-3" value="&lt;div align=&quot;left&quot;&gt;Inicia sesion UC-001&lt;/div&gt;" style="text;html=1;strokeColor=none;fillColor=none;align=left;verticalAlign=middle;whiteSpace=wrap;rounded=0;" vertex="1" parent="1">
          <mxGeometry x="190" y="40" width="150" height="30" as="geometry" />
        </mxCell>
        <mxCell id="Xmn437RvW-CCdH2j-r-6-15" style="rounded=0;orthogonalLoop=1;jettySize=auto;html=1;endArrow=none;endFill=0;" edge="1" parent="1" source="Xmn437RvW-CCdH2j-r-6-6">
          <mxGeometry relative="1" as="geometry">
            <mxPoint x="140" y="150" as="targetPoint" />
          </mxGeometry>
        </mxCell>
        <mxCell id="Xmn437RvW-CCdH2j-r-6-6" value="Accede a la página principal de &quot;EasyBank Connect&quot;" style="ellipse;whiteSpace=wrap;html=1;" vertex="1" parent="1">
          <mxGeometry x="290" y="70" width="130" height="70" as="geometry" />
        </mxCell>
        <mxCell id="Xmn437RvW-CCdH2j-r-6-7" value="ingresa su nombre de usuario y contraseña" style="ellipse;whiteSpace=wrap;html=1;" vertex="1" parent="1">
          <mxGeometry x="290" y="150" width="130" height="80" as="geometry" />
        </mxCell>
        <mxCell id="Xmn437RvW-CCdH2j-r-6-18" style="edgeStyle=orthogonalEdgeStyle;rounded=0;orthogonalLoop=1;jettySize=auto;html=1;entryX=0;entryY=0.5;entryDx=0;entryDy=0;dashed=1;" edge="1" parent="1" source="Xmn437RvW-CCdH2j-r-6-8" target="Xmn437RvW-CCdH2j-r-6-13">
          <mxGeometry relative="1" as="geometry" />
        </mxCell>
        <mxCell id="Xmn437RvW-CCdH2j-r-6-8" value="selecciona el botón “Iniciar Sesión”" style="ellipse;whiteSpace=wrap;html=1;" vertex="1" parent="1">
          <mxGeometry x="290" y="240" width="130" height="70" as="geometry" />
        </mxCell>
        <mxCell id="Xmn437RvW-CCdH2j-r-6-9" value="&lt;div&gt;Sistema&lt;/div&gt;" style="shape=umlActor;verticalLabelPosition=bottom;verticalAlign=top;html=1;outlineConnect=0;" vertex="1" parent="1">
          <mxGeometry x="700" y="180" width="30" height="60" as="geometry" />
        </mxCell>
        <mxCell id="Xmn437RvW-CCdH2j-r-6-19" style="rounded=0;orthogonalLoop=1;jettySize=auto;html=1;exitX=1;exitY=0.5;exitDx=0;exitDy=0;endArrow=none;endFill=0;" edge="1" parent="1" source="Xmn437RvW-CCdH2j-r-6-13">
          <mxGeometry relative="1" as="geometry">
            <mxPoint x="680" y="230" as="targetPoint" />
          </mxGeometry>
        </mxCell>
        <mxCell id="Xmn437RvW-CCdH2j-r-6-13" value="Validar credenciales" style="ellipse;whiteSpace=wrap;html=1;" vertex="1" parent="1">
          <mxGeometry x="470" y="240" width="130" height="70" as="geometry" />
        </mxCell>
        <mxCell id="Xmn437RvW-CCdH2j-r-6-14" value="Entra a la página principal" style="ellipse;whiteSpace=wrap;html=1;" vertex="1" parent="1">
          <mxGeometry x="290" y="330" width="130" height="70" as="geometry" />
        </mxCell>
        <mxCell id="Xmn437RvW-CCdH2j-r-6-16" style="rounded=0;orthogonalLoop=1;jettySize=auto;html=1;endArrow=none;endFill=0;" edge="1" parent="1">
          <mxGeometry relative="1" as="geometry">
            <mxPoint x="160" y="200" as="targetPoint" />
            <mxPoint x="290" y="194" as="sourcePoint" />
          </mxGeometry>
        </mxCell>
        <mxCell id="Xmn437RvW-CCdH2j-r-6-17" style="rounded=0;orthogonalLoop=1;jettySize=auto;html=1;endArrow=none;endFill=0;" edge="1" parent="1">
          <mxGeometry relative="1" as="geometry">
            <mxPoint x="170" y="240" as="targetPoint" />
            <mxPoint x="290" y="277" as="sourcePoint" />
          </mxGeometry>
        </mxCell>
        <mxCell id="Xmn437RvW-CCdH2j-r-6-20" style="rounded=0;orthogonalLoop=1;jettySize=auto;html=1;endArrow=none;endFill=0;exitX=0;exitY=0.5;exitDx=0;exitDy=0;" edge="1" parent="1" source="Xmn437RvW-CCdH2j-r-6-14">
          <mxGeometry relative="1" as="geometry">
            <mxPoint x="160" y="270" as="targetPoint" />
            <mxPoint x="300" y="287" as="sourcePoint" />
          </mxGeometry>
        </mxCell>
        <mxCell id="Xmn437RvW-CCdH2j-r-6-37" value="Usuario del sistema" style="shape=umlActor;verticalLabelPosition=bottom;verticalAlign=top;html=1;outlineConnect=0;" vertex="1" parent="1">
          <mxGeometry x="90" y="650" width="30" height="60" as="geometry" />
        </mxCell>
        <mxCell id="Xmn437RvW-CCdH2j-r-6-39" value="&lt;div align=&quot;left&quot;&gt;Recuperar contraseña UC-002&lt;/div&gt;" style="text;html=1;strokeColor=none;fillColor=none;align=left;verticalAlign=middle;whiteSpace=wrap;rounded=0;" vertex="1" parent="1">
          <mxGeometry x="190" y="520" width="260" height="30" as="geometry" />
        </mxCell>
        <mxCell id="Xmn437RvW-CCdH2j-r-6-40" style="rounded=0;orthogonalLoop=1;jettySize=auto;html=1;endArrow=none;endFill=0;" edge="1" parent="1" source="Xmn437RvW-CCdH2j-r-6-41">
          <mxGeometry relative="1" as="geometry">
            <mxPoint x="140" y="630" as="targetPoint" />
          </mxGeometry>
        </mxCell>
        <mxCell id="Xmn437RvW-CCdH2j-r-6-41" value="Selecciona la opción “¿Olvidó su contraseña?”" style="ellipse;whiteSpace=wrap;html=1;" vertex="1" parent="1">
          <mxGeometry x="290" y="550" width="130" height="70" as="geometry" />
        </mxCell>
        <mxCell id="Xmn437RvW-CCdH2j-r-6-42" value="Completa el captcha" style="ellipse;whiteSpace=wrap;html=1;" vertex="1" parent="1">
          <mxGeometry x="290" y="630" width="130" height="80" as="geometry" />
        </mxCell>
        <mxCell id="Xmn437RvW-CCdH2j-r-6-43" style="edgeStyle=orthogonalEdgeStyle;rounded=0;orthogonalLoop=1;jettySize=auto;html=1;entryX=0;entryY=0.5;entryDx=0;entryDy=0;dashed=1;" edge="1" parent="1" source="Xmn437RvW-CCdH2j-r-6-44" target="Xmn437RvW-CCdH2j-r-6-47">
          <mxGeometry relative="1" as="geometry" />
        </mxCell>
        <mxCell id="Xmn437RvW-CCdH2j-r-6-44" value="ingresa su dirección de correo electrónico" style="ellipse;whiteSpace=wrap;html=1;" vertex="1" parent="1">
          <mxGeometry x="290" y="720" width="130" height="70" as="geometry" />
        </mxCell>
        <mxCell id="Xmn437RvW-CCdH2j-r-6-45" value="&lt;div&gt;Sistema&lt;/div&gt;" style="shape=umlActor;verticalLabelPosition=bottom;verticalAlign=top;html=1;outlineConnect=0;" vertex="1" parent="1">
          <mxGeometry x="700" y="660" width="30" height="60" as="geometry" />
        </mxCell>
        <mxCell id="Xmn437RvW-CCdH2j-r-6-46" style="rounded=0;orthogonalLoop=1;jettySize=auto;html=1;exitX=1;exitY=0.5;exitDx=0;exitDy=0;endArrow=none;endFill=0;" edge="1" parent="1" source="Xmn437RvW-CCdH2j-r-6-47">
          <mxGeometry relative="1" as="geometry">
            <mxPoint x="680" y="710" as="targetPoint" />
          </mxGeometry>
        </mxCell>
        <mxCell id="Xmn437RvW-CCdH2j-r-6-47" value="Validar correo" style="ellipse;whiteSpace=wrap;html=1;" vertex="1" parent="1">
          <mxGeometry x="470" y="720" width="130" height="70" as="geometry" />
        </mxCell>
        <mxCell id="Xmn437RvW-CCdH2j-r-6-48" value=" ingresa su nombre de usuario y contraseña temporal" style="ellipse;whiteSpace=wrap;html=1;" vertex="1" parent="1">
          <mxGeometry x="290" y="810" width="140" height="70" as="geometry" />
        </mxCell>
        <mxCell id="Xmn437RvW-CCdH2j-r-6-49" style="rounded=0;orthogonalLoop=1;jettySize=auto;html=1;endArrow=none;endFill=0;" edge="1" parent="1">
          <mxGeometry relative="1" as="geometry">
            <mxPoint x="160" y="680" as="targetPoint" />
            <mxPoint x="290" y="674" as="sourcePoint" />
          </mxGeometry>
        </mxCell>
        <mxCell id="Xmn437RvW-CCdH2j-r-6-50" style="rounded=0;orthogonalLoop=1;jettySize=auto;html=1;endArrow=none;endFill=0;" edge="1" parent="1">
          <mxGeometry relative="1" as="geometry">
            <mxPoint x="170" y="720" as="targetPoint" />
            <mxPoint x="290" y="757" as="sourcePoint" />
          </mxGeometry>
        </mxCell>
        <mxCell id="Xmn437RvW-CCdH2j-r-6-51" style="rounded=0;orthogonalLoop=1;jettySize=auto;html=1;endArrow=none;endFill=0;exitX=0;exitY=0.5;exitDx=0;exitDy=0;" edge="1" parent="1" source="Xmn437RvW-CCdH2j-r-6-48">
          <mxGeometry relative="1" as="geometry">
            <mxPoint x="160" y="750" as="targetPoint" />
            <mxPoint x="300" y="767" as="sourcePoint" />
          </mxGeometry>
        </mxCell>
        <mxCell id="Xmn437RvW-CCdH2j-r-6-52" value="sistema presenta un captcha" style="ellipse;whiteSpace=wrap;html=1;" vertex="1" parent="1">
          <mxGeometry x="470" y="635" width="130" height="70" as="geometry" />
        </mxCell>
        <mxCell id="Xmn437RvW-CCdH2j-r-6-54" style="edgeStyle=orthogonalEdgeStyle;rounded=0;orthogonalLoop=1;jettySize=auto;html=1;entryX=0;entryY=0.5;entryDx=0;entryDy=0;dashed=1;" edge="1" parent="1">
          <mxGeometry relative="1" as="geometry">
            <mxPoint x="420" y="669.83" as="sourcePoint" />
            <mxPoint x="470" y="669.83" as="targetPoint" />
          </mxGeometry>
        </mxCell>
        <mxCell id="Xmn437RvW-CCdH2j-r-6-55" value="Establecer una nueva contraseña" style="ellipse;whiteSpace=wrap;html=1;" vertex="1" parent="1">
          <mxGeometry x="290" y="890" width="140" height="70" as="geometry" />
        </mxCell>
        <mxCell id="Xmn437RvW-CCdH2j-r-6-57" value="Usario entra al sistema" style="ellipse;whiteSpace=wrap;html=1;" vertex="1" parent="1">
          <mxGeometry x="290" y="970" width="140" height="70" as="geometry" />
        </mxCell>
        <mxCell id="Xmn437RvW-CCdH2j-r-6-58" style="rounded=0;orthogonalLoop=1;jettySize=auto;html=1;endArrow=none;endFill=0;exitX=0;exitY=0.5;exitDx=0;exitDy=0;" edge="1" parent="1">
          <mxGeometry relative="1" as="geometry">
            <mxPoint x="150" y="770" as="targetPoint" />
            <mxPoint x="290" y="925" as="sourcePoint" />
          </mxGeometry>
        </mxCell>
        <mxCell id="Xmn437RvW-CCdH2j-r-6-60" style="rounded=0;orthogonalLoop=1;jettySize=auto;html=1;endArrow=none;endFill=0;exitX=0;exitY=0.5;exitDx=0;exitDy=0;" edge="1" parent="1">
          <mxGeometry relative="1" as="geometry">
            <mxPoint x="130" y="790" as="targetPoint" />
            <mxPoint x="290" y="1005" as="sourcePoint" />
          </mxGeometry>
        </mxCell>
        <mxCell id="Xmn437RvW-CCdH2j-r-6-61" style="rounded=0;orthogonalLoop=1;jettySize=auto;html=1;exitX=1;exitY=0.5;exitDx=0;exitDy=0;endArrow=none;endFill=0;" edge="1" parent="1" source="Xmn437RvW-CCdH2j-r-6-52">
          <mxGeometry relative="1" as="geometry">
            <mxPoint x="680" y="680" as="targetPoint" />
            <mxPoint x="600" y="725" as="sourcePoint" />
          </mxGeometry>
        </mxCell>
        <mxCell id="Xmn437RvW-CCdH2j-r-6-62" value="" style="rounded=0;whiteSpace=wrap;html=1;fillColor=none;" vertex="1" parent="1">
          <mxGeometry x="190" y="1090" width="450" height="390" as="geometry" />
        </mxCell>
        <mxCell id="Xmn437RvW-CCdH2j-r-6-63" value="Usuario del sistema" style="shape=umlActor;verticalLabelPosition=bottom;verticalAlign=top;html=1;outlineConnect=0;" vertex="1" parent="1">
          <mxGeometry x="90" y="1220" width="30" height="60" as="geometry" />
        </mxCell>
        <mxCell id="Xmn437RvW-CCdH2j-r-6-64" value="&lt;div align=&quot;left&quot;&gt;Crear Usuario UC-003&lt;/div&gt;" style="text;html=1;strokeColor=none;fillColor=none;align=left;verticalAlign=middle;whiteSpace=wrap;rounded=0;" vertex="1" parent="1">
          <mxGeometry x="190" y="1090" width="260" height="30" as="geometry" />
        </mxCell>
        <mxCell id="Xmn437RvW-CCdH2j-r-6-65" style="rounded=0;orthogonalLoop=1;jettySize=auto;html=1;endArrow=none;endFill=0;" edge="1" source="Xmn437RvW-CCdH2j-r-6-66" parent="1">
          <mxGeometry relative="1" as="geometry">
            <mxPoint x="140" y="1200" as="targetPoint" />
          </mxGeometry>
        </mxCell>
        <mxCell id="Xmn437RvW-CCdH2j-r-6-66" value="Selecciona la opción “¿Crear usuario?”" style="ellipse;whiteSpace=wrap;html=1;" vertex="1" parent="1">
          <mxGeometry x="290" y="1120" width="130" height="70" as="geometry" />
        </mxCell>
        <mxCell id="Xmn437RvW-CCdH2j-r-6-67" value="&lt;div&gt;Introduce 16 dígitos de la tarjeta bancaria y PIN&lt;br&gt;&lt;/div&gt;" style="ellipse;whiteSpace=wrap;html=1;" vertex="1" parent="1">
          <mxGeometry x="290" y="1200" width="130" height="80" as="geometry" />
        </mxCell>
        <mxCell id="Xmn437RvW-CCdH2j-r-6-68" style="edgeStyle=orthogonalEdgeStyle;rounded=0;orthogonalLoop=1;jettySize=auto;html=1;entryX=0;entryY=0.5;entryDx=0;entryDy=0;dashed=1;" edge="1" source="Xmn437RvW-CCdH2j-r-6-69" target="Xmn437RvW-CCdH2j-r-6-72" parent="1">
          <mxGeometry relative="1" as="geometry" />
        </mxCell>
        <mxCell id="Xmn437RvW-CCdH2j-r-6-69" value="Establece contraseña" style="ellipse;whiteSpace=wrap;html=1;" vertex="1" parent="1">
          <mxGeometry x="290" y="1290" width="130" height="70" as="geometry" />
        </mxCell>
        <mxCell id="Xmn437RvW-CCdH2j-r-6-70" value="&lt;div&gt;Sistema&lt;/div&gt;" style="shape=umlActor;verticalLabelPosition=bottom;verticalAlign=top;html=1;outlineConnect=0;" vertex="1" parent="1">
          <mxGeometry x="700" y="1230" width="30" height="60" as="geometry" />
        </mxCell>
        <mxCell id="Xmn437RvW-CCdH2j-r-6-71" style="rounded=0;orthogonalLoop=1;jettySize=auto;html=1;exitX=1;exitY=0.5;exitDx=0;exitDy=0;endArrow=none;endFill=0;" edge="1" source="Xmn437RvW-CCdH2j-r-6-72" parent="1">
          <mxGeometry relative="1" as="geometry">
            <mxPoint x="680" y="1280" as="targetPoint" />
          </mxGeometry>
        </mxCell>
        <mxCell id="Xmn437RvW-CCdH2j-r-6-72" value="Confirmación de creación de cuenta" style="ellipse;whiteSpace=wrap;html=1;" vertex="1" parent="1">
          <mxGeometry x="470" y="1290" width="130" height="70" as="geometry" />
        </mxCell>
        <mxCell id="Xmn437RvW-CCdH2j-r-6-73" value="Accede a pagina de inicio" style="ellipse;whiteSpace=wrap;html=1;" vertex="1" parent="1">
          <mxGeometry x="290" y="1380" width="140" height="70" as="geometry" />
        </mxCell>
        <mxCell id="Xmn437RvW-CCdH2j-r-6-74" style="rounded=0;orthogonalLoop=1;jettySize=auto;html=1;endArrow=none;endFill=0;" edge="1" parent="1">
          <mxGeometry relative="1" as="geometry">
            <mxPoint x="160" y="1250" as="targetPoint" />
            <mxPoint x="290" y="1244" as="sourcePoint" />
          </mxGeometry>
        </mxCell>
        <mxCell id="Xmn437RvW-CCdH2j-r-6-75" style="rounded=0;orthogonalLoop=1;jettySize=auto;html=1;endArrow=none;endFill=0;" edge="1" parent="1">
          <mxGeometry relative="1" as="geometry">
            <mxPoint x="170" y="1290" as="targetPoint" />
            <mxPoint x="290" y="1327" as="sourcePoint" />
          </mxGeometry>
        </mxCell>
        <mxCell id="Xmn437RvW-CCdH2j-r-6-76" style="rounded=0;orthogonalLoop=1;jettySize=auto;html=1;endArrow=none;endFill=0;exitX=0;exitY=0.5;exitDx=0;exitDy=0;" edge="1" source="Xmn437RvW-CCdH2j-r-6-73" parent="1">
          <mxGeometry relative="1" as="geometry">
            <mxPoint x="160" y="1320" as="targetPoint" />
            <mxPoint x="300" y="1337" as="sourcePoint" />
          </mxGeometry>
        </mxCell>
        <mxCell id="Xmn437RvW-CCdH2j-r-6-77" value="Valida tarjeta" style="ellipse;whiteSpace=wrap;html=1;" vertex="1" parent="1">
          <mxGeometry x="470" y="1205" width="130" height="70" as="geometry" />
        </mxCell>
        <mxCell id="Xmn437RvW-CCdH2j-r-6-78" style="edgeStyle=orthogonalEdgeStyle;rounded=0;orthogonalLoop=1;jettySize=auto;html=1;entryX=0;entryY=0.5;entryDx=0;entryDy=0;dashed=1;" edge="1" parent="1">
          <mxGeometry relative="1" as="geometry">
            <mxPoint x="420" y="1239.83" as="sourcePoint" />
            <mxPoint x="470" y="1239.83" as="targetPoint" />
          </mxGeometry>
        </mxCell>
        <mxCell id="Xmn437RvW-CCdH2j-r-6-83" style="rounded=0;orthogonalLoop=1;jettySize=auto;html=1;exitX=1;exitY=0.5;exitDx=0;exitDy=0;endArrow=none;endFill=0;" edge="1" source="Xmn437RvW-CCdH2j-r-6-77" parent="1">
          <mxGeometry relative="1" as="geometry">
            <mxPoint x="680" y="1250" as="targetPoint" />
            <mxPoint x="600" y="1295" as="sourcePoint" />
          </mxGeometry>
        </mxCell>
        <mxCell id="Xmn437RvW-CCdH2j-r-6-84" value="" style="rounded=0;whiteSpace=wrap;html=1;fillColor=none;" vertex="1" parent="1">
          <mxGeometry x="190" y="1489" width="450" height="530" as="geometry" />
        </mxCell>
        <mxCell id="Xmn437RvW-CCdH2j-r-6-85" value="Usuario del sistema" style="shape=umlActor;verticalLabelPosition=bottom;verticalAlign=top;html=1;outlineConnect=0;" vertex="1" parent="1">
          <mxGeometry x="90" y="1619" width="30" height="60" as="geometry" />
        </mxCell>
        <mxCell id="Xmn437RvW-CCdH2j-r-6-86" value="&lt;div align=&quot;left&quot;&gt;Realizar Transferencia UC-004&lt;/div&gt;" style="text;html=1;strokeColor=none;fillColor=none;align=left;verticalAlign=middle;whiteSpace=wrap;rounded=0;" vertex="1" parent="1">
          <mxGeometry x="190" y="1489" width="260" height="30" as="geometry" />
        </mxCell>
        <mxCell id="Xmn437RvW-CCdH2j-r-6-87" style="rounded=0;orthogonalLoop=1;jettySize=auto;html=1;endArrow=none;endFill=0;" edge="1" source="Xmn437RvW-CCdH2j-r-6-88" parent="1">
          <mxGeometry relative="1" as="geometry">
            <mxPoint x="140" y="1599" as="targetPoint" />
          </mxGeometry>
        </mxCell>
        <mxCell id="Xmn437RvW-CCdH2j-r-6-88" value="Selecciona la opción &quot;Realizar Transferencia”" style="ellipse;whiteSpace=wrap;html=1;" vertex="1" parent="1">
          <mxGeometry x="290" y="1519" width="130" height="70" as="geometry" />
        </mxCell>
        <mxCell id="Xmn437RvW-CCdH2j-r-6-89" value="Escoge una cuenta" style="ellipse;whiteSpace=wrap;html=1;" vertex="1" parent="1">
          <mxGeometry x="290" y="1599" width="130" height="80" as="geometry" />
        </mxCell>
        <mxCell id="Xmn437RvW-CCdH2j-r-6-91" value="Escoge un contacto o crea uno " style="ellipse;whiteSpace=wrap;html=1;" vertex="1" parent="1">
          <mxGeometry x="290" y="1689" width="130" height="70" as="geometry" />
        </mxCell>
        <mxCell id="Xmn437RvW-CCdH2j-r-6-92" value="&lt;div&gt;Sistema&lt;/div&gt;" style="shape=umlActor;verticalLabelPosition=bottom;verticalAlign=top;html=1;outlineConnect=0;" vertex="1" parent="1">
          <mxGeometry x="700" y="1629" width="30" height="60" as="geometry" />
        </mxCell>
        <mxCell id="Xmn437RvW-CCdH2j-r-6-93" style="rounded=0;orthogonalLoop=1;jettySize=auto;html=1;exitX=0.965;exitY=0.37;exitDx=0;exitDy=0;endArrow=none;endFill=0;exitPerimeter=0;" edge="1" source="Xmn437RvW-CCdH2j-r-6-106" parent="1">
          <mxGeometry relative="1" as="geometry">
            <mxPoint x="680" y="1679" as="targetPoint" />
            <mxPoint x="600" y="1724" as="sourcePoint" />
          </mxGeometry>
        </mxCell>
        <mxCell id="Xmn437RvW-CCdH2j-r-6-95" value="Introduce el total junto a la glosa" style="ellipse;whiteSpace=wrap;html=1;" vertex="1" parent="1">
          <mxGeometry x="290" y="1779" width="140" height="70" as="geometry" />
        </mxCell>
        <mxCell id="Xmn437RvW-CCdH2j-r-6-96" style="rounded=0;orthogonalLoop=1;jettySize=auto;html=1;endArrow=none;endFill=0;" edge="1" parent="1">
          <mxGeometry relative="1" as="geometry">
            <mxPoint x="160" y="1649" as="targetPoint" />
            <mxPoint x="290" y="1643" as="sourcePoint" />
          </mxGeometry>
        </mxCell>
        <mxCell id="Xmn437RvW-CCdH2j-r-6-97" style="rounded=0;orthogonalLoop=1;jettySize=auto;html=1;endArrow=none;endFill=0;" edge="1" parent="1">
          <mxGeometry relative="1" as="geometry">
            <mxPoint x="170" y="1689" as="targetPoint" />
            <mxPoint x="290" y="1726" as="sourcePoint" />
          </mxGeometry>
        </mxCell>
        <mxCell id="Xmn437RvW-CCdH2j-r-6-98" style="rounded=0;orthogonalLoop=1;jettySize=auto;html=1;endArrow=none;endFill=0;exitX=0;exitY=0.5;exitDx=0;exitDy=0;" edge="1" source="Xmn437RvW-CCdH2j-r-6-95" parent="1">
          <mxGeometry relative="1" as="geometry">
            <mxPoint x="160" y="1719" as="targetPoint" />
            <mxPoint x="300" y="1736" as="sourcePoint" />
          </mxGeometry>
        </mxCell>
        <mxCell id="Xmn437RvW-CCdH2j-r-6-101" value="Usuario confirma y completa la transacción" style="ellipse;whiteSpace=wrap;html=1;" vertex="1" parent="1">
          <mxGeometry x="290" y="1859" width="140" height="70" as="geometry" />
        </mxCell>
        <mxCell id="Xmn437RvW-CCdH2j-r-6-102" style="rounded=0;orthogonalLoop=1;jettySize=auto;html=1;endArrow=none;endFill=0;exitX=0;exitY=0.5;exitDx=0;exitDy=0;" edge="1" parent="1">
          <mxGeometry relative="1" as="geometry">
            <mxPoint x="150" y="1739" as="targetPoint" />
            <mxPoint x="290" y="1894" as="sourcePoint" />
          </mxGeometry>
        </mxCell>
        <mxCell id="Xmn437RvW-CCdH2j-r-6-105" value="Comparte o guarda el boucher" style="ellipse;whiteSpace=wrap;html=1;" vertex="1" parent="1">
          <mxGeometry x="465" y="1910" width="140" height="70" as="geometry" />
        </mxCell>
        <mxCell id="Xmn437RvW-CCdH2j-r-6-106" value="Genera una boucher" style="ellipse;whiteSpace=wrap;html=1;" vertex="1" parent="1">
          <mxGeometry x="480" y="1740" width="130" height="70" as="geometry" />
        </mxCell>
        <mxCell id="Xmn437RvW-CCdH2j-r-6-107" style="rounded=0;orthogonalLoop=1;jettySize=auto;html=1;entryX=0;entryY=1;entryDx=0;entryDy=0;dashed=1;exitX=0.928;exitY=0.276;exitDx=0;exitDy=0;exitPerimeter=0;" edge="1" parent="1" source="Xmn437RvW-CCdH2j-r-6-101" target="Xmn437RvW-CCdH2j-r-6-106">
          <mxGeometry relative="1" as="geometry">
            <mxPoint x="460" y="1575" as="sourcePoint" />
            <mxPoint x="510" y="1575" as="targetPoint" />
          </mxGeometry>
        </mxCell>
        <mxCell id="Xmn437RvW-CCdH2j-r-6-109" style="rounded=0;orthogonalLoop=1;jettySize=auto;html=1;dashed=1;exitX=0;exitY=0.5;exitDx=0;exitDy=0;entryX=1;entryY=1;entryDx=0;entryDy=0;" edge="1" parent="1" source="Xmn437RvW-CCdH2j-r-6-105" target="Xmn437RvW-CCdH2j-r-6-101">
          <mxGeometry relative="1" as="geometry">
            <mxPoint x="430" y="1938" as="sourcePoint" />
            <mxPoint x="435.6854838709671" y="2079" as="targetPoint" />
          </mxGeometry>
        </mxCell>
        <mxCell id="Xmn437RvW-CCdH2j-r-6-111" value="" style="rounded=0;whiteSpace=wrap;html=1;fillColor=none;" vertex="1" parent="1">
          <mxGeometry x="190" y="2040" width="450" height="530" as="geometry" />
        </mxCell>
        <mxCell id="Xmn437RvW-CCdH2j-r-6-112" value="Usuario del sistema" style="shape=umlActor;verticalLabelPosition=bottom;verticalAlign=top;html=1;outlineConnect=0;" vertex="1" parent="1">
          <mxGeometry x="90" y="2170" width="30" height="60" as="geometry" />
        </mxCell>
        <mxCell id="Xmn437RvW-CCdH2j-r-6-113" value="Gestionar Contactos UC-005" style="text;html=1;strokeColor=none;fillColor=none;align=left;verticalAlign=middle;whiteSpace=wrap;rounded=0;" vertex="1" parent="1">
          <mxGeometry x="190" y="2040" width="260" height="30" as="geometry" />
        </mxCell>
        <mxCell id="Xmn437RvW-CCdH2j-r-6-114" style="rounded=0;orthogonalLoop=1;jettySize=auto;html=1;endArrow=none;endFill=0;" edge="1" parent="1" source="Xmn437RvW-CCdH2j-r-6-115">
          <mxGeometry relative="1" as="geometry">
            <mxPoint x="140" y="2150" as="targetPoint" />
          </mxGeometry>
        </mxCell>
        <mxCell id="Xmn437RvW-CCdH2j-r-6-115" value="Selecciona la opción “¿Olvidó su contraseña?”" style="ellipse;whiteSpace=wrap;html=1;" vertex="1" parent="1">
          <mxGeometry x="290" y="2070" width="130" height="70" as="geometry" />
        </mxCell>
        <mxCell id="Xmn437RvW-CCdH2j-r-6-116" value="Completa el captcha" style="ellipse;whiteSpace=wrap;html=1;" vertex="1" parent="1">
          <mxGeometry x="290" y="2150" width="130" height="80" as="geometry" />
        </mxCell>
        <mxCell id="Xmn437RvW-CCdH2j-r-6-117" style="edgeStyle=orthogonalEdgeStyle;rounded=0;orthogonalLoop=1;jettySize=auto;html=1;entryX=0;entryY=0.5;entryDx=0;entryDy=0;dashed=1;" edge="1" parent="1" source="Xmn437RvW-CCdH2j-r-6-118" target="Xmn437RvW-CCdH2j-r-6-121">
          <mxGeometry relative="1" as="geometry" />
        </mxCell>
        <mxCell id="Xmn437RvW-CCdH2j-r-6-118" value="ingresa su dirección de correo electrónico" style="ellipse;whiteSpace=wrap;html=1;" vertex="1" parent="1">
          <mxGeometry x="290" y="2240" width="130" height="70" as="geometry" />
        </mxCell>
        <mxCell id="Xmn437RvW-CCdH2j-r-6-119" value="&lt;div&gt;Sistema&lt;/div&gt;" style="shape=umlActor;verticalLabelPosition=bottom;verticalAlign=top;html=1;outlineConnect=0;" vertex="1" parent="1">
          <mxGeometry x="700" y="2180" width="30" height="60" as="geometry" />
        </mxCell>
        <mxCell id="Xmn437RvW-CCdH2j-r-6-120" style="rounded=0;orthogonalLoop=1;jettySize=auto;html=1;exitX=1;exitY=0.5;exitDx=0;exitDy=0;endArrow=none;endFill=0;" edge="1" parent="1" source="Xmn437RvW-CCdH2j-r-6-121">
          <mxGeometry relative="1" as="geometry">
            <mxPoint x="680" y="2230" as="targetPoint" />
          </mxGeometry>
        </mxCell>
        <mxCell id="Xmn437RvW-CCdH2j-r-6-121" value="Validar correo" style="ellipse;whiteSpace=wrap;html=1;" vertex="1" parent="1">
          <mxGeometry x="470" y="2240" width="130" height="70" as="geometry" />
        </mxCell>
        <mxCell id="Xmn437RvW-CCdH2j-r-6-122" value=" ingresa su nombre de usuario y contraseña temporal" style="ellipse;whiteSpace=wrap;html=1;" vertex="1" parent="1">
          <mxGeometry x="290" y="2330" width="140" height="70" as="geometry" />
        </mxCell>
        <mxCell id="Xmn437RvW-CCdH2j-r-6-123" style="rounded=0;orthogonalLoop=1;jettySize=auto;html=1;endArrow=none;endFill=0;" edge="1" parent="1">
          <mxGeometry relative="1" as="geometry">
            <mxPoint x="160" y="2200" as="targetPoint" />
            <mxPoint x="290" y="2194" as="sourcePoint" />
          </mxGeometry>
        </mxCell>
        <mxCell id="Xmn437RvW-CCdH2j-r-6-124" style="rounded=0;orthogonalLoop=1;jettySize=auto;html=1;endArrow=none;endFill=0;" edge="1" parent="1">
          <mxGeometry relative="1" as="geometry">
            <mxPoint x="170" y="2240" as="targetPoint" />
            <mxPoint x="290" y="2277" as="sourcePoint" />
          </mxGeometry>
        </mxCell>
        <mxCell id="Xmn437RvW-CCdH2j-r-6-125" style="rounded=0;orthogonalLoop=1;jettySize=auto;html=1;endArrow=none;endFill=0;exitX=0;exitY=0.5;exitDx=0;exitDy=0;" edge="1" parent="1" source="Xmn437RvW-CCdH2j-r-6-122">
          <mxGeometry relative="1" as="geometry">
            <mxPoint x="160" y="2270" as="targetPoint" />
            <mxPoint x="300" y="2287" as="sourcePoint" />
          </mxGeometry>
        </mxCell>
        <mxCell id="Xmn437RvW-CCdH2j-r-6-126" value="sistema presenta un captcha" style="ellipse;whiteSpace=wrap;html=1;" vertex="1" parent="1">
          <mxGeometry x="470" y="2155" width="130" height="70" as="geometry" />
        </mxCell>
        <mxCell id="Xmn437RvW-CCdH2j-r-6-127" style="edgeStyle=orthogonalEdgeStyle;rounded=0;orthogonalLoop=1;jettySize=auto;html=1;entryX=0;entryY=0.5;entryDx=0;entryDy=0;dashed=1;" edge="1" parent="1">
          <mxGeometry relative="1" as="geometry">
            <mxPoint x="420" y="2189.83" as="sourcePoint" />
            <mxPoint x="470" y="2189.83" as="targetPoint" />
          </mxGeometry>
        </mxCell>
        <mxCell id="Xmn437RvW-CCdH2j-r-6-128" value="Establecer una nueva contraseña" style="ellipse;whiteSpace=wrap;html=1;" vertex="1" parent="1">
          <mxGeometry x="290" y="2410" width="140" height="70" as="geometry" />
        </mxCell>
        <mxCell id="Xmn437RvW-CCdH2j-r-6-129" value="Usario entra al sistema" style="ellipse;whiteSpace=wrap;html=1;" vertex="1" parent="1">
          <mxGeometry x="290" y="2490" width="140" height="70" as="geometry" />
        </mxCell>
        <mxCell id="Xmn437RvW-CCdH2j-r-6-130" style="rounded=0;orthogonalLoop=1;jettySize=auto;html=1;endArrow=none;endFill=0;exitX=0;exitY=0.5;exitDx=0;exitDy=0;" edge="1" parent="1">
          <mxGeometry relative="1" as="geometry">
            <mxPoint x="150" y="2290" as="targetPoint" />
            <mxPoint x="290" y="2445" as="sourcePoint" />
          </mxGeometry>
        </mxCell>
        <mxCell id="Xmn437RvW-CCdH2j-r-6-131" style="rounded=0;orthogonalLoop=1;jettySize=auto;html=1;endArrow=none;endFill=0;exitX=0;exitY=0.5;exitDx=0;exitDy=0;" edge="1" parent="1">
          <mxGeometry relative="1" as="geometry">
            <mxPoint x="130" y="2310" as="targetPoint" />
            <mxPoint x="290" y="2525" as="sourcePoint" />
          </mxGeometry>
        </mxCell>
        <mxCell id="Xmn437RvW-CCdH2j-r-6-132" style="rounded=0;orthogonalLoop=1;jettySize=auto;html=1;exitX=1;exitY=0.5;exitDx=0;exitDy=0;endArrow=none;endFill=0;" edge="1" parent="1" source="Xmn437RvW-CCdH2j-r-6-126">
          <mxGeometry relative="1" as="geometry">
            <mxPoint x="680" y="2200" as="targetPoint" />
            <mxPoint x="600" y="2245" as="sourcePoint" />
          </mxGeometry>
        </mxCell>
      </root>
    </mxGraphModel>
  </diagram>
</mxfile>
